<?xml version="1.0" encoding="UTF-8"?>
<!DOCTYPE svg PUBLIC "-//W3C//DTD SVG 1.1//EN" "http://www.w3.org/Graphics/SVG/1.1/DTD/svg11.dtd">
<svg xmlns="http://www.w3.org/2000/svg" version="1.1" width="1024px" height="1024px" style="shape-rendering:geometricPrecision; text-rendering:geometricPrecision; image-rendering:optimizeQuality; fill-rule:evenodd; clip-rule:evenodd" xmlns:xlink="http://www.w3.org/1999/xlink">
<g><path style="opacity:1" fill="#fefefe" d="M -0.5,-0.5 C 340.833,-0.5 682.167,-0.5 1023.5,-0.5C 1023.5,340.833 1023.5,682.167 1023.5,1023.5C 682.167,1023.5 340.833,1023.5 -0.5,1023.5C -0.5,682.167 -0.5,340.833 -0.5,-0.5 Z"/></g>
<g><path style="opacity:1" fill="#fffbed" d="M 442.5,128.5 C 489.56,128.015 536.56,128.515 583.5,130C 536.167,130.667 488.833,130.667 441.5,130C 442.056,129.617 442.389,129.117 442.5,128.5 Z"/></g>
<g><path style="opacity:1" fill="#2e72db" d="M 601.5,134.5 C 550.195,132.469 498.861,131.969 447.5,133C 436.162,133.961 424.829,134.961 413.5,136C 401.495,138.74 389.495,140.906 377.5,142.5C 377.934,145.166 376.934,146.333 374.5,146C 376.956,143.841 376.29,143.008 372.5,143.5C 395.59,136.937 419.256,133.104 443.5,132C 488.167,131.333 532.833,131.333 577.5,132C 585.666,132.697 593.666,133.531 601.5,134.5 Z"/></g>
<g><path style="opacity:1" fill="#036bf4" d="M 601.5,134.5 C 707.307,148.31 793.14,196.977 859,280.5C 893.168,325.516 916.001,375.849 927.5,431.5C 927.41,434.152 928.076,436.485 929.5,438.5C 929.5,438.833 929.5,439.167 929.5,439.5C 929.915,448.664 930.915,457.664 932.5,466.5C 932.333,469.167 932.167,471.833 932,474.5C 930.904,470.976 930.071,467.31 929.5,463.5C 929.167,464.167 928.833,464.833 928.5,465.5C 929.182,469.138 929.682,472.805 930,476.5C 930.333,476.833 930.667,477.167 931,477.5C 931.308,476.692 931.808,476.025 932.5,475.5C 933.281,476.729 933.781,478.062 934,479.5C 934.667,509.5 934.667,539.5 934,569.5C 932.989,568.663 931.822,568.33 930.5,568.5C 930.5,569.833 930.5,571.167 930.5,572.5C 911.48,572.246 892.48,572.579 873.5,573.5C 873.86,540.816 873.36,508.15 872,475.5C 871.722,474.584 871.222,473.918 870.5,473.5C 855.749,372.324 805.416,294.49 719.5,240C 702.25,230.373 684.584,221.873 666.5,214.5C 664.618,213.249 662.618,212.082 660.5,211C 661.938,210.781 663.271,210.281 664.5,209.5C 663.833,209.167 663.167,208.833 662.5,208.5C 658.181,207.667 653.847,207.5 649.5,208C 654.627,207.526 654.627,206.526 649.5,205C 648.311,200.441 645.311,198.274 640.5,198.5C 636.575,200.106 632.575,201.439 628.5,202.5C 624.622,201.899 624.622,201.065 628.5,200C 627.5,199.5 626.5,199 625.5,198.5C 624.051,199.617 622.384,200.284 620.5,200.5C 616.524,199.836 612.524,199.503 608.5,199.5C 602.783,199.207 597.116,198.54 591.5,197.5C 586.417,195.922 581.084,195.255 575.5,195.5C 530.335,194.335 485.002,194.169 439.5,195C 438.944,195.383 438.611,195.883 438.5,196.5C 330.718,209.113 248.551,261.447 192,353.5C 173.854,386.464 161.354,421.464 154.5,458.5C 153.883,458.611 153.383,458.944 153,459.5C 151.1,471.424 150.267,483.424 150.5,495.5C 150.5,497.5 150.5,499.5 150.5,501.5C 149.502,525.328 149.169,549.328 149.5,573.5C 130.52,572.579 111.52,572.246 92.5,572.5C 92.5,571.167 92.5,569.833 92.5,568.5C 91.1779,568.33 90.0113,568.663 89,569.5C 88.3333,539.5 88.3333,509.5 89,479.5C 89.3333,479.167 89.6667,478.833 90,478.5C 90.3804,489.511 90.8804,500.511 91.5,511.5C 92.5,511.5 93.5,511.5 94.5,511.5C 93.3625,505.602 92.6958,499.602 92.5,493.5C 92.478,484.432 93.1446,475.432 94.5,466.5C 94.1249,461.79 93.4582,457.123 92.5,452.5C 93.864,445.56 94.864,438.56 95.5,431.5C 95.5,430.5 95.5,429.5 95.5,428.5C 96.1499,428.196 96.8165,427.863 97.5,427.5C 98.1667,424.5 98.8333,421.5 99.5,418.5C 100.298,420.078 100.798,421.744 101,423.5C 103.346,421.294 103.846,418.794 102.5,416C 103.293,414.915 103.96,413.748 104.5,412.5C 102.429,410.07 102.096,407.403 103.5,404.5C 105.085,407.272 106.085,407.106 106.5,404C 105.946,402.449 105.28,400.949 104.5,399.5C 105.169,396.972 106.002,396.972 107,399.5C 107.167,399 107.333,398.5 107.5,398C 106.678,395.566 106.344,393.066 106.5,390.5C 138.401,298.102 196.734,227.602 281.5,179C 310.27,163.133 340.604,151.299 372.5,143.5C 376.29,143.008 376.956,143.841 374.5,146C 376.934,146.333 377.934,145.166 377.5,142.5C 389.495,140.906 401.495,138.74 413.5,136C 424.829,134.961 436.162,133.961 447.5,133C 498.861,131.969 550.195,132.469 601.5,134.5 Z"/></g>
<g><path style="opacity:1" fill="#1466d1" d="M 575.5,195.5 C 572.167,195.5 568.833,195.5 565.5,195.5C 523.147,195.194 480.814,195.527 438.5,196.5C 438.611,195.883 438.944,195.383 439.5,195C 485.002,194.169 530.335,194.335 575.5,195.5 Z"/></g>
<g><path style="opacity:1" fill="#6799ea" d="M 565.5,195.5 C 568.833,195.5 572.167,195.5 575.5,195.5C 581.084,195.255 586.417,195.922 591.5,197.5C 582.662,197.123 573.995,196.457 565.5,195.5 Z"/></g>
<g><path style="opacity:1" fill="#1e6eed" d="M 666.5,214.5 C 647.402,208.226 628.069,203.226 608.5,199.5C 612.524,199.503 616.524,199.836 620.5,200.5C 622.384,200.284 624.051,199.617 625.5,198.5C 626.5,199 627.5,199.5 628.5,200C 624.622,201.065 624.622,201.899 628.5,202.5C 632.575,201.439 636.575,200.106 640.5,198.5C 645.311,198.274 648.311,200.441 649.5,205C 654.627,206.526 654.627,207.526 649.5,208C 653.847,207.5 658.181,207.667 662.5,208.5C 663.167,208.833 663.833,209.167 664.5,209.5C 663.271,210.281 661.938,210.781 660.5,211C 662.618,212.082 664.618,213.249 666.5,214.5 Z"/></g>
<g><path style="opacity:1" fill="#016af4" d="M 818.5,403.5 C 819.917,414.475 821.751,425.475 824,436.5C 824.383,437.056 824.883,437.389 825.5,437.5C 825.5,440.833 825.5,444.167 825.5,447.5C 825.5,489.5 825.5,531.5 825.5,573.5C 805.167,573.5 784.833,573.5 764.5,573.5C 764.667,533.165 764.5,492.832 764,452.5C 763.844,449.809 763.011,447.476 761.5,445.5C 759.079,420.807 751.579,397.807 739,376.5C 738.282,375.549 737.449,375.383 736.5,376C 731.667,380.833 726.833,385.667 722,390.5C 721.5,451.832 721.333,513.166 721.5,574.5C 721.167,574.5 720.833,574.5 720.5,574.5C 720.667,514.166 720.5,453.832 720,393.5C 719.5,448.832 719.333,504.166 719.5,559.5C 660.5,559.5 601.5,559.5 542.5,559.5C 542.5,479.5 542.5,399.5 542.5,319.5C 590.501,319.667 638.501,319.5 686.5,319C 685.956,318.283 685.289,317.783 684.5,317.5C 657.211,299.459 627.211,289.292 594.5,287C 534.817,286.052 475.15,286.386 415.5,288C 389.684,291.654 366.017,300.487 344.5,314.5C 342.216,314.975 340.216,315.975 338.5,317.5C 337.711,317.783 337.044,318.283 336.5,319C 384.499,319.5 432.499,319.667 480.5,319.5C 480.5,399.5 480.5,479.5 480.5,559.5C 421.5,559.5 362.5,559.5 303.5,559.5C 303.667,500.166 303.5,440.832 303,381.5C 302.5,445.832 302.333,510.166 302.5,574.5C 302.167,574.5 301.833,574.5 301.5,574.5C 301.667,510.166 301.5,445.832 301,381.5C 296.985,377.318 292.818,373.318 288.5,369.5C 278.566,383.436 271.399,398.769 267,415.5C 264.339,426.21 262.172,436.876 260.5,447.5C 258.505,489.153 257.839,531.153 258.5,573.5C 238.167,573.5 217.833,573.5 197.5,573.5C 197.333,531.499 197.5,489.499 198,447.5C 198.771,440.515 199.271,433.515 199.5,426.5C 199.5,426.167 199.5,425.833 199.5,425.5C 200.927,423.852 201.76,421.852 202,419.5C 203.445,414.252 204.278,408.918 204.5,403.5C 224.2,332.625 266.867,280.459 332.5,247C 359.392,234.036 387.726,226.37 417.5,224C 481.5,223.333 545.5,223.333 609.5,224C 701.473,236.71 767.306,284.877 807,368.5C 811.991,379.808 815.824,391.475 818.5,403.5 Z"/></g>
<g><path style="opacity:1" fill="#8cacda" d="M 338.5,317.5 C 387.167,318.167 435.833,318.833 484.5,319.5C 484.167,319.5 483.833,319.5 483.5,319.5C 483.167,319.5 482.833,319.5 482.5,319.5C 481.833,319.5 481.167,319.5 480.5,319.5C 432.499,319.667 384.499,319.5 336.5,319C 337.044,318.283 337.711,317.783 338.5,317.5 Z"/></g>
<g><path style="opacity:1" fill="#8babda" d="M 684.5,317.5 C 685.289,317.783 685.956,318.283 686.5,319C 638.501,319.5 590.501,319.667 542.5,319.5C 541.833,319.5 541.167,319.5 540.5,319.5C 540.167,319.5 539.833,319.5 539.5,319.5C 539.167,319.5 538.833,319.5 538.5,319.5C 587.167,318.833 635.833,318.167 684.5,317.5 Z"/></g>
<g><path style="opacity:1" fill="#0f67de" d="M 482.5,319.5 C 482.833,319.5 483.167,319.5 483.5,319.5C 483.5,404.5 483.5,489.5 483.5,574.5C 423.5,574.5 363.5,574.5 303.5,574.5C 303.5,574.167 303.5,573.833 303.5,573.5C 362.5,573.5 421.5,573.5 480.5,573.5C 482.497,489.173 483.164,404.507 482.5,319.5 Z"/></g>
<g><path style="opacity:1" fill="#f0fefe" d="M 344.5,314.5 C 344.5,315.5 344.5,316.5 344.5,317.5C 390.19,317.823 435.857,317.49 481.5,316.5C 483.33,316.776 484.997,317.443 486.5,318.5C 485.836,403.961 485.169,489.294 484.5,574.5C 484.5,489.5 484.5,404.5 484.5,319.5C 435.833,318.833 387.167,318.167 338.5,317.5C 340.216,315.975 342.216,314.975 344.5,314.5 Z"/></g>
<g><path style="opacity:1" fill="#0f67de" d="M 539.5,319.5 C 539.833,319.5 540.167,319.5 540.5,319.5C 539.836,404.507 540.503,489.173 542.5,573.5C 601.5,573.5 660.5,573.5 719.5,573.5C 719.5,573.833 719.5,574.167 719.5,574.5C 659.5,574.5 599.5,574.5 539.5,574.5C 539.5,489.5 539.5,404.5 539.5,319.5 Z"/></g>
<g><path style="opacity:1" fill="#206fea" d="M 106.5,390.5 C 106.344,393.066 106.678,395.566 107.5,398C 107.333,398.5 107.167,399 107,399.5C 106.002,396.972 105.169,396.972 104.5,399.5C 105.28,400.949 105.946,402.449 106.5,404C 106.085,407.106 105.085,407.272 103.5,404.5C 102.096,407.403 102.429,410.07 104.5,412.5C 103.96,413.748 103.293,414.915 102.5,416C 103.846,418.794 103.346,421.294 101,423.5C 100.798,421.744 100.298,420.078 99.5,418.5C 98.8333,421.5 98.1667,424.5 97.5,427.5C 96.8165,427.863 96.1499,428.196 95.5,428.5C 98.2543,415.468 101.921,402.802 106.5,390.5 Z"/></g>
<g><path style="opacity:1" fill="#3878e0" d="M 204.5,403.5 C 204.278,408.918 203.445,414.252 202,419.5C 201.76,421.852 200.927,423.852 199.5,425.5C 200.251,417.84 201.918,410.506 204.5,403.5 Z"/></g>
<g><path style="opacity:1" fill="#3e7ce2" d="M 818.5,403.5 C 821.892,414.489 824.225,425.822 825.5,437.5C 824.883,437.389 824.383,437.056 824,436.5C 821.751,425.475 819.917,414.475 818.5,403.5 Z"/></g>
<g><path style="opacity:1" fill="#5189df" d="M 927.5,431.5 C 928.924,433.515 929.59,435.848 929.5,438.5C 928.076,436.485 927.41,434.152 927.5,431.5 Z"/></g>
<g><path style="opacity:1" fill="#4681e4" d="M 154.5,458.5 C 153.156,470.973 151.823,483.306 150.5,495.5C 150.267,483.424 151.1,471.424 153,459.5C 153.383,458.944 153.883,458.611 154.5,458.5 Z"/></g>
<g><path style="opacity:1" fill="#1669dc" d="M 761.5,445.5 C 763.011,447.476 763.844,449.809 764,452.5C 764.5,492.832 764.667,533.165 764.5,573.5C 784.833,573.5 805.167,573.5 825.5,573.5C 825.5,531.5 825.5,489.5 825.5,447.5C 826.499,489.663 826.832,531.997 826.5,574.5C 805.5,574.5 784.5,574.5 763.5,574.5C 763.832,536.33 763.499,498.33 762.5,460.5C 762.497,455.473 762.164,450.473 761.5,445.5 Z"/></g>
<g><path style="opacity:1" fill="#1b6adb" d="M 199.5,426.5 C 199.271,433.515 198.771,440.515 198,447.5C 197.5,489.499 197.333,531.499 197.5,573.5C 217.833,573.5 238.167,573.5 258.5,573.5C 257.839,531.153 258.505,489.153 260.5,447.5C 260.5,450.167 260.5,452.833 260.5,455.5C 259.501,494.996 259.168,534.663 259.5,574.5C 238.5,574.5 217.5,574.5 196.5,574.5C 196.333,530.165 196.5,485.832 197,441.5C 197.437,436.294 198.27,431.294 199.5,426.5 Z"/></g>
<g><path style="opacity:1" fill="#3e79da" d="M 91.5,450.5 C 91.4772,458.438 90.4772,466.105 88.5,473.5C 88.7779,465.604 89.7779,457.937 91.5,450.5 Z"/></g>
<g><path style="opacity:1" fill="#2771e5" d="M 95.5,431.5 C 94.864,438.56 93.864,445.56 92.5,452.5C 93.4582,457.123 94.1249,461.79 94.5,466.5C 93.1446,475.432 92.478,484.432 92.5,493.5C 92.6958,499.602 93.3625,505.602 94.5,511.5C 93.5,511.5 92.5,511.5 91.5,511.5C 90.8804,500.511 90.3804,489.511 90,478.5C 89.6667,478.833 89.3333,479.167 89,479.5C 88.3333,509.5 88.3333,539.5 89,569.5C 90.0113,568.663 91.1779,568.33 92.5,568.5C 92.5,569.833 92.5,571.167 92.5,572.5C 111.52,572.246 130.52,572.579 149.5,573.5C 149.169,549.328 149.502,525.328 150.5,501.5C 150.5,526.167 150.5,550.833 150.5,575.5C 129.167,575.5 107.833,575.5 86.5,575.5C 86.3334,546.165 86.5,516.831 87,487.5C 87.2227,482.75 87.7227,478.084 88.5,473.5C 90.4772,466.105 91.4772,458.438 91.5,450.5C 91.8821,443.843 93.2154,437.509 95.5,431.5 Z"/></g>
<g><path style="opacity:1" fill="#3c7ed6" d="M 870.5,473.5 C 871.222,473.918 871.722,474.584 872,475.5C 873.36,508.15 873.86,540.816 873.5,573.5C 894.327,574.497 915.327,574.831 936.5,574.5C 915.34,575.497 894.007,575.831 872.5,575.5C 873.004,541.451 872.337,507.451 870.5,473.5 Z"/></g>
<g><path style="opacity:1" fill="#006afa" d="M 480.5,319.5 C 481.167,319.5 481.833,319.5 482.5,319.5C 483.164,404.507 482.497,489.173 480.5,573.5C 480.5,569.167 480.5,564.833 480.5,560.5C 421.5,560.5 362.5,560.5 303.5,560.5C 303.5,562.833 303.5,565.167 303.5,567.5C 538.167,567.833 538.167,568.167 303.5,568.5C 303.5,570.167 303.5,571.833 303.5,573.5C 303.5,573.833 303.5,574.167 303.5,574.5C 303.167,574.5 302.833,574.5 302.5,574.5C 302.333,510.166 302.5,445.832 303,381.5C 303.5,440.832 303.667,500.166 303.5,559.5C 362.5,559.5 421.5,559.5 480.5,559.5C 480.5,479.5 480.5,399.5 480.5,319.5 Z"/></g>
<g><path style="opacity:1" fill="#006afa" d="M 540.5,319.5 C 541.167,319.5 541.833,319.5 542.5,319.5C 542.5,399.5 542.5,479.5 542.5,559.5C 601.5,559.5 660.5,559.5 719.5,559.5C 719.333,504.166 719.5,448.832 720,393.5C 720.5,453.832 720.667,514.166 720.5,574.5C 720.167,574.5 719.833,574.5 719.5,574.5C 719.5,574.167 719.5,573.833 719.5,573.5C 719.5,571.833 719.5,570.167 719.5,568.5C 484.833,568.167 484.833,567.833 719.5,567.5C 719.5,565.167 719.5,562.833 719.5,560.5C 660.5,560.5 601.5,560.5 542.5,560.5C 542.5,564.833 542.5,569.167 542.5,573.5C 540.503,489.173 539.836,404.507 540.5,319.5 Z"/></g>
<g><path style="opacity:1" fill="#016af3" d="M 480.5,573.5 C 421.5,573.5 362.5,573.5 303.5,573.5C 303.5,571.833 303.5,570.167 303.5,568.5C 538.167,568.167 538.167,567.833 303.5,567.5C 303.5,565.167 303.5,562.833 303.5,560.5C 362.5,560.5 421.5,560.5 480.5,560.5C 480.5,564.833 480.5,569.167 480.5,573.5 Z"/></g>
<g><path style="opacity:1" fill="#016af3" d="M 719.5,573.5 C 660.5,573.5 601.5,573.5 542.5,573.5C 542.5,569.167 542.5,564.833 542.5,560.5C 601.5,560.5 660.5,560.5 719.5,560.5C 719.5,562.833 719.5,565.167 719.5,567.5C 484.833,567.833 484.833,568.167 719.5,568.5C 719.5,570.167 719.5,571.833 719.5,573.5 Z"/></g>
<g><path style="opacity:1" fill="#206ce2" d="M 929.5,439.5 C 932.814,454.194 934.98,469.194 936,484.5C 936.5,514.498 936.667,544.498 936.5,574.5C 915.327,574.831 894.327,574.497 873.5,573.5C 892.48,572.579 911.48,572.246 930.5,572.5C 930.5,571.167 930.5,569.833 930.5,568.5C 931.822,568.33 932.989,568.663 934,569.5C 934.667,539.5 934.667,509.5 934,479.5C 933.781,478.062 933.281,476.729 932.5,475.5C 931.808,476.025 931.308,476.692 931,477.5C 930.667,477.167 930.333,476.833 930,476.5C 929.682,472.805 929.182,469.138 928.5,465.5C 928.833,464.833 929.167,464.167 929.5,463.5C 930.071,467.31 930.904,470.976 932,474.5C 932.167,471.833 932.333,469.167 932.5,466.5C 930.915,457.664 929.915,448.664 929.5,439.5 Z"/></g>
<g><path style="opacity:1" fill="#69abf2" d="M 260.5,455.5 C 260.5,495.5 260.5,535.5 260.5,575.5C 238.993,575.831 217.66,575.497 196.5,574.5C 217.5,574.5 238.5,574.5 259.5,574.5C 259.168,534.663 259.501,494.996 260.5,455.5 Z"/></g>
<g><path style="opacity:1" fill="#6fb1f6" d="M 483.5,319.5 C 483.833,319.5 484.167,319.5 484.5,319.5C 484.5,404.5 484.5,489.5 484.5,574.5C 423.5,575.833 362.5,575.833 301.5,574.5C 301.833,574.5 302.167,574.5 302.5,574.5C 302.833,574.5 303.167,574.5 303.5,574.5C 363.5,574.5 423.5,574.5 483.5,574.5C 483.5,489.5 483.5,404.5 483.5,319.5 Z"/></g>
<g><path style="opacity:1" fill="#6fb1f6" d="M 538.5,319.5 C 538.833,319.5 539.167,319.5 539.5,319.5C 539.5,404.5 539.5,489.5 539.5,574.5C 599.5,574.5 659.5,574.5 719.5,574.5C 719.833,574.5 720.167,574.5 720.5,574.5C 720.833,574.5 721.167,574.5 721.5,574.5C 660.669,575.499 599.669,575.832 538.5,575.5C 538.5,490.167 538.5,404.833 538.5,319.5 Z"/></g>
<g><path style="opacity:1" fill="#69abf3" d="M 762.5,460.5 C 763.499,498.33 763.832,536.33 763.5,574.5C 784.5,574.5 805.5,574.5 826.5,574.5C 805.34,575.497 784.007,575.831 762.5,575.5C 762.5,537.167 762.5,498.833 762.5,460.5 Z"/></g>
<g><path style="opacity:1" fill="#0c225f" d="M 254.5,620.5 C 267.323,621.495 280.323,621.829 293.5,621.5C 293.5,627.5 293.5,633.5 293.5,639.5C 280.323,639.171 267.323,639.505 254.5,640.5C 254.5,642.833 254.5,645.167 254.5,647.5C 247.167,647.5 239.833,647.5 232.5,647.5C 232.5,644.833 232.5,642.167 232.5,639.5C 221.986,639.172 211.653,639.506 201.5,640.5C 201.5,642.833 201.5,645.167 201.5,647.5C 194.167,647.5 186.833,647.5 179.5,647.5C 179.802,644.941 179.468,642.607 178.5,640.5C 165.677,639.505 152.677,639.171 139.5,639.5C 139.5,633.5 139.5,627.5 139.5,621.5C 152.677,621.829 165.677,621.495 178.5,620.5C 178.5,617.167 178.5,613.833 178.5,610.5C 186.167,610.5 193.833,610.5 201.5,610.5C 201.5,613.833 201.5,617.167 201.5,620.5C 211.833,620.5 222.167,620.5 232.5,620.5C 232.5,617.167 232.5,613.833 232.5,610.5C 239.833,610.5 247.167,610.5 254.5,610.5C 254.5,613.833 254.5,617.167 254.5,620.5 Z"/></g>
<g><path style="opacity:1" fill="#112150" d="M 462.5,648.5 C 461.822,638.432 461.156,628.265 460.5,618C 437.836,617.5 415.169,617.333 392.5,617.5C 392.827,626.682 392.493,635.682 391.5,644.5C 391.5,635.167 391.5,625.833 391.5,616.5C 415.167,616.5 438.833,616.5 462.5,616.5C 462.5,627.167 462.5,637.833 462.5,648.5 Z"/></g>
<g><path style="opacity:1" fill="#0d2360" d="M 391.5,644.5 C 392.493,635.682 392.827,626.682 392.5,617.5C 415.169,617.333 437.836,617.5 460.5,618C 461.156,628.265 461.822,638.432 462.5,648.5C 462.738,651.148 464.072,652.982 466.5,654C 472.175,654.366 477.841,654.2 483.5,653.5C 481.968,660.326 480.635,667.159 479.5,674C 469.426,674.923 459.426,674.59 449.5,673C 445.333,671.5 442.5,668.667 441,664.5C 440.5,655.173 440.334,645.839 440.5,636.5C 431.5,636.5 422.5,636.5 413.5,636.5C 414.482,655.54 406.815,669.874 390.5,679.5C 385.854,676.186 381.521,672.519 377.5,668.5C 373.283,670.036 368.95,671.036 364.5,671.5C 364.167,687.181 364.501,702.848 365.5,718.5C 369.084,717.181 372.75,716.181 376.5,715.5C 377.33,721.138 377.83,726.804 378,732.5C 389.014,725.495 398.847,716.995 407.5,707C 396.505,706.5 385.505,706.333 374.5,706.5C 374.5,700.167 374.5,693.833 374.5,687.5C 388.167,687.5 401.833,687.5 415.5,687.5C 415.5,682.5 415.5,677.5 415.5,672.5C 422.833,672.5 430.167,672.5 437.5,672.5C 437.5,677.5 437.5,682.5 437.5,687.5C 452.167,687.5 466.833,687.5 481.5,687.5C 481.5,693.833 481.5,700.167 481.5,706.5C 469.829,706.333 458.162,706.5 446.5,707C 456.383,719.72 468.716,729.22 483.5,735.5C 479.667,741.833 475.833,748.167 472,754.5C 458.508,747.339 447.174,737.673 438,725.5C 437.5,737.829 437.333,750.162 437.5,762.5C 430.167,762.5 422.833,762.5 415.5,762.5C 415.667,750.162 415.5,737.829 415,725.5C 405.512,737.658 394.179,747.658 381,755.5C 376.986,752.146 373.653,748.146 371,743.5C 369.883,741.876 368.383,740.876 366.5,740.5C 353.963,744.134 341.297,747.134 328.5,749.5C 328.257,743.294 327.59,737.127 326.5,731C 326.833,729.833 327.167,728.667 327.5,727.5C 332.12,725.959 336.787,724.626 341.5,723.5C 342.497,706.008 342.83,688.341 342.5,670.5C 337.833,670.5 333.167,670.5 328.5,670.5C 328.5,662.833 328.5,655.167 328.5,647.5C 332.833,647.5 337.167,647.5 341.5,647.5C 341.5,635.167 341.5,622.833 341.5,610.5C 349.167,610.5 356.833,610.5 364.5,610.5C 364.5,622.833 364.5,635.167 364.5,647.5C 368.833,647.5 373.167,647.5 377.5,647.5C 377.334,652.179 377.501,656.845 378,661.5C 384.881,657.746 389.381,652.079 391.5,644.5 Z"/></g>
<g><path style="opacity:1" fill="#31416d" d="M 658.5,638.5 C 658.5,631.833 658.5,625.167 658.5,618.5C 628.833,618.5 599.167,618.5 569.5,618.5C 569.5,625.167 569.5,631.833 569.5,638.5C 568.509,631.687 568.175,624.687 568.5,617.5C 598.833,617.5 629.167,617.5 659.5,617.5C 659.825,624.687 659.491,631.687 658.5,638.5 Z"/></g>
<g><path style="opacity:1" fill="#2a3c6e" d="M 850.5,617.5 C 850.5,617.833 850.5,618.167 850.5,618.5C 823.167,618.5 795.833,618.5 768.5,618.5C 768.5,635.167 768.5,651.833 768.5,668.5C 768.167,668.5 767.833,668.5 767.5,668.5C 767.5,651.5 767.5,634.5 767.5,617.5C 795.167,617.5 822.833,617.5 850.5,617.5 Z"/></g>
<g><path style="opacity:1" fill="#0e2360" d="M 539.5,610.5 C 540.822,610.33 541.989,610.663 543,611.5C 549.167,621.167 555.333,630.833 561.5,640.5C 561.023,641.478 560.357,642.311 559.5,643C 553.239,646.047 547.073,649.213 541,652.5C 534.511,642.196 528.011,631.862 521.5,621.5C 527.528,617.822 533.528,614.156 539.5,610.5 Z"/></g>
<g><path style="opacity:1" fill="#0c225f" d="M 749.5,616.5 C 752.5,616.5 755.5,616.5 758.5,616.5C 758.756,618.792 758.423,620.959 757.5,623C 760.011,626.33 761.011,630.163 760.5,634.5C 754.616,635.05 748.782,635.716 743,636.5C 743.048,642.966 743.548,649.299 744.5,655.5C 749.833,655.5 755.167,655.5 760.5,655.5C 760.5,662.167 760.5,668.833 760.5,675.5C 754.974,675.179 749.64,675.512 744.5,676.5C 744.176,680.555 744.509,684.555 745.5,688.5C 752.303,692.804 758.97,697.304 765.5,702C 762.206,708.088 759.039,714.255 756,720.5C 752.333,717.167 748.667,713.833 745,710.5C 744.5,728.164 744.333,745.83 744.5,763.5C 737.5,763.5 730.5,763.5 723.5,763.5C 723.667,748.163 723.5,732.83 723,717.5C 721.961,718.244 721.461,719.244 721.5,720.5C 718.512,726.474 715.012,732.14 711,737.5C 708.115,730.178 705.615,722.678 703.5,715C 706.542,708.943 710.042,703.11 714,697.5C 717.121,690.928 719.955,684.261 722.5,677.5C 723.043,677.44 723.376,677.107 723.5,676.5C 717.537,675.504 711.537,675.171 705.5,675.5C 705.5,668.5 705.5,661.5 705.5,654.5C 711.5,654.5 717.5,654.5 723.5,654.5C 723.5,649.167 723.5,643.833 723.5,638.5C 718.167,638.5 712.833,638.5 707.5,638.5C 706.998,631.815 706.331,625.149 705.5,618.5C 720.152,617.523 734.818,616.857 749.5,616.5 Z"/></g>
<g><path style="opacity:1" fill="#0a225f" d="M 658.5,638.5 C 628.833,638.5 599.167,638.5 569.5,638.5C 569.5,631.833 569.5,625.167 569.5,618.5C 599.167,618.5 628.833,618.5 658.5,618.5C 658.5,625.167 658.5,631.833 658.5,638.5 Z"/></g>
<g><path style="opacity:1" fill="#0a225f" d="M 850.5,618.5 C 850.5,635.167 850.5,651.833 850.5,668.5C 823.167,668.5 795.833,668.5 768.5,668.5C 768.5,651.833 768.5,635.167 768.5,618.5C 795.833,618.5 823.167,618.5 850.5,618.5 Z"/></g>
<g><path style="opacity:1" fill="#f4f6f7" d="M 789.5,635.5 C 802.833,635.5 816.167,635.5 829.5,635.5C 829.5,640.833 829.5,646.167 829.5,651.5C 816.167,651.5 802.833,651.5 789.5,651.5C 789.5,646.167 789.5,640.833 789.5,635.5 Z"/></g>
<g><path style="opacity:1" fill="#707893" d="M 178.5,620.5 C 165.677,621.495 152.677,621.829 139.5,621.5C 139.5,627.5 139.5,633.5 139.5,639.5C 152.677,639.171 165.677,639.505 178.5,640.5C 165.167,640.5 151.833,640.5 138.5,640.5C 138.5,633.833 138.5,627.167 138.5,620.5C 151.833,620.5 165.167,620.5 178.5,620.5 Z"/></g>
<g><path style="opacity:1" fill="#798199" d="M 201.5,640.5 C 211.653,639.506 221.986,639.172 232.5,639.5C 232.5,642.167 232.5,644.833 232.5,647.5C 231.532,645.393 231.198,643.059 231.5,640.5C 221.5,640.5 211.5,640.5 201.5,640.5 Z"/></g>
<g><path style="opacity:1" fill="#757c97" d="M 254.5,620.5 C 267.833,620.5 281.167,620.5 294.5,620.5C 294.5,627.167 294.5,633.833 294.5,640.5C 281.167,640.5 267.833,640.5 254.5,640.5C 267.323,639.505 280.323,639.171 293.5,639.5C 293.5,633.5 293.5,627.5 293.5,621.5C 280.323,621.829 267.323,621.495 254.5,620.5 Z"/></g>
<g><path style="opacity:1" fill="#1b2856" d="M 749.5,616.5 C 752.625,615.521 755.958,615.187 759.5,615.5C 760.5,622.167 761.5,628.833 762.5,635.5C 756.545,636.363 750.545,636.697 744.5,636.5C 744.5,642.5 744.5,648.5 744.5,654.5C 744.5,654.833 744.5,655.167 744.5,655.5C 743.548,649.299 743.048,642.966 743,636.5C 748.782,635.716 754.616,635.05 760.5,634.5C 761.011,630.163 760.011,626.33 757.5,623C 758.423,620.959 758.756,618.792 758.5,616.5C 755.5,616.5 752.5,616.5 749.5,616.5 Z"/></g>
<g><path style="opacity:1" fill="#a1a8c4" d="M 178.5,640.5 C 179.468,642.607 179.802,644.941 179.5,647.5C 186.833,647.5 194.167,647.5 201.5,647.5C 194.018,648.492 186.352,648.825 178.5,648.5C 178.5,645.833 178.5,643.167 178.5,640.5 Z"/></g>
<g><path style="opacity:1" fill="#0c2260" d="M 154.5,651.5 C 195.833,651.5 237.167,651.5 278.5,651.5C 278.5,673.833 278.5,696.167 278.5,718.5C 261.833,718.5 245.167,718.5 228.5,718.5C 228.5,721.5 228.5,724.5 228.5,727.5C 249.66,728.497 270.993,728.831 292.5,728.5C 292.5,733.833 292.5,739.167 292.5,744.5C 271.327,744.169 250.327,744.503 229.5,745.5C 228.51,751.31 228.177,757.31 228.5,763.5C 220.5,763.5 212.5,763.5 204.5,763.5C 204.5,757.5 204.5,751.5 204.5,745.5C 183.329,744.833 161.996,744.167 140.5,743.5C 141.376,742.749 142.376,742.249 143.5,742C 159.5,741.667 175.5,741.333 191.5,741C 174.503,740.5 157.503,740.333 140.5,740.5C 140.5,738.833 140.5,737.167 140.5,735.5C 158.17,735.667 175.836,735.5 193.5,735C 176.431,735.146 159.598,734.312 143,732.5C 142.692,733.308 142.192,733.975 141.5,734.5C 140.534,732.604 140.201,730.604 140.5,728.5C 162.167,728.5 183.833,728.5 205.5,728.5C 205.81,725.287 205.477,722.287 204.5,719.5C 188.008,718.503 171.342,718.17 154.5,718.5C 154.5,696.167 154.5,673.833 154.5,651.5 Z"/></g>
<g><path style="opacity:1" fill="#54658f" d="M 153.5,651.5 C 153.833,651.5 154.167,651.5 154.5,651.5C 154.5,673.833 154.5,696.167 154.5,718.5C 171.342,718.17 188.008,718.503 204.5,719.5C 187.5,719.5 170.5,719.5 153.5,719.5C 153.5,696.833 153.5,674.167 153.5,651.5 Z"/></g>
<g><path style="opacity:1" fill="#646f93" d="M 744.5,655.5 C 744.5,655.167 744.5,654.833 744.5,654.5C 750.167,654.5 755.833,654.5 761.5,654.5C 761.5,661.833 761.5,669.167 761.5,676.5C 755.833,676.5 750.167,676.5 744.5,676.5C 749.64,675.512 754.974,675.179 760.5,675.5C 760.5,668.833 760.5,662.167 760.5,655.5C 755.167,655.5 749.833,655.5 744.5,655.5 Z"/></g>
<g><path style="opacity:1" fill="#0d2360" d="M 666.5,658.5 C 666.5,665.167 666.5,671.833 666.5,678.5C 657.167,678.5 647.833,678.5 638.5,678.5C 638.172,689.679 638.505,700.679 639.5,711.5C 640.492,713.026 641.992,713.693 644,713.5C 646.034,713.646 647.701,712.98 649,711.5C 650.817,704.312 651.651,696.979 651.5,689.5C 657.427,691.198 663.26,693.198 669,695.5C 669.155,706.571 667.155,717.238 663,727.5C 660.559,729.969 657.726,731.802 654.5,733C 645.833,733.667 637.167,733.667 628.5,733C 621.216,731.382 617.049,726.882 616,719.5C 615.5,706.171 615.333,692.837 615.5,679.5C 611.702,678.517 607.702,678.183 603.5,678.5C 603.5,681.5 603.5,684.5 603.5,687.5C 601.768,707.635 592.768,723.635 576.5,735.5C 570.5,730.167 564.833,724.5 559.5,718.5C 574.356,709.461 581.356,696.128 580.5,678.5C 574.167,678.5 567.833,678.5 561.5,678.5C 561.5,671.833 561.5,665.167 561.5,658.5C 596.5,658.5 631.5,658.5 666.5,658.5 Z"/></g>
<g><path style="opacity:1" fill="#7683a8" d="M 850.5,617.5 C 851.497,634.659 851.83,651.992 851.5,669.5C 823.328,669.831 795.328,669.498 767.5,668.5C 767.833,668.5 768.167,668.5 768.5,668.5C 795.833,668.5 823.167,668.5 850.5,668.5C 850.5,651.833 850.5,635.167 850.5,618.5C 850.5,618.167 850.5,617.833 850.5,617.5 Z"/></g>
<g><path style="opacity:1" fill="#fdfefd" d="M 254.5,668.5 C 254.5,671.167 254.5,673.833 254.5,676.5C 228.833,676.5 203.167,676.5 177.5,676.5C 177.5,673.833 177.5,671.167 177.5,668.5C 203.167,668.5 228.833,668.5 254.5,668.5 Z"/></g>
<g><path style="opacity:1" fill="#8999c5" d="M 377.5,668.5 C 377.5,669.5 377.5,670.5 377.5,671.5C 373.167,671.5 368.833,671.5 364.5,671.5C 368.95,671.036 373.283,670.036 377.5,668.5 Z"/></g>
<g><path style="opacity:1" fill="#50608c" d="M 328.5,647.5 C 328.5,655.167 328.5,662.833 328.5,670.5C 333.167,670.5 337.833,670.5 342.5,670.5C 342.83,688.341 342.497,706.008 341.5,723.5C 341.5,706.167 341.5,688.833 341.5,671.5C 336.833,671.5 332.167,671.5 327.5,671.5C 327.174,663.316 327.508,655.316 328.5,647.5 Z"/></g>
<g><path style="opacity:1" fill="#6e799c" d="M 705.5,675.5 C 711.537,675.171 717.537,675.504 723.5,676.5C 723.376,677.107 723.043,677.44 722.5,677.5C 716.833,676.833 711.167,676.167 705.5,675.5 Z"/></g>
<g><path style="opacity:1" fill="#dce2f1" d="M 254.5,668.5 C 255.477,671.287 255.81,674.287 255.5,677.5C 229.328,677.831 203.328,677.498 177.5,676.5C 203.167,676.5 228.833,676.5 254.5,676.5C 254.5,673.833 254.5,671.167 254.5,668.5 Z"/></g>
<g><path style="opacity:1" fill="#7884aa" d="M 516.5,662.5 C 516.5,669.833 516.5,677.167 516.5,684.5C 522.026,684.179 527.36,684.512 532.5,685.5C 526.833,685.5 521.167,685.5 515.5,685.5C 515.175,677.648 515.508,669.982 516.5,662.5 Z"/></g>
<g><path style="opacity:1" fill="#b4c0e2" d="M 666.5,658.5 C 667.491,665.313 667.825,672.313 667.5,679.5C 658.167,679.5 648.833,679.5 639.5,679.5C 639.5,690.167 639.5,700.833 639.5,711.5C 638.505,700.679 638.172,689.679 638.5,678.5C 647.833,678.5 657.167,678.5 666.5,678.5C 666.5,671.833 666.5,665.167 666.5,658.5 Z"/></g>
<g><path style="opacity:1" fill="#0d235f" d="M 764.5,679.5 C 794.833,679.5 825.167,679.5 855.5,679.5C 855.5,685.5 855.5,691.5 855.5,697.5C 843.833,697.5 832.167,697.5 820.5,697.5C 820.5,701.833 820.5,706.167 820.5,710.5C 831.167,710.5 841.833,710.5 852.5,710.5C 852.5,716.5 852.5,722.5 852.5,728.5C 841.833,728.5 831.167,728.5 820.5,728.5C 820.5,732.833 820.5,737.167 820.5,741.5C 833.5,741.5 846.5,741.5 859.5,741.5C 859.5,747.167 859.5,752.833 859.5,758.5C 825.5,758.5 791.5,758.5 757.5,758.5C 757.5,752.833 757.5,747.167 757.5,741.5C 770.833,741.5 784.167,741.5 797.5,741.5C 797.5,737.167 797.5,732.833 797.5,728.5C 786.833,728.5 776.167,728.5 765.5,728.5C 765.5,722.5 765.5,716.5 765.5,710.5C 776.5,710.5 787.5,710.5 798.5,710.5C 798.5,706.167 798.5,701.833 798.5,697.5C 787.167,697.5 775.833,697.5 764.5,697.5C 764.5,691.5 764.5,685.5 764.5,679.5 Z"/></g>
<g><path style="opacity:1" fill="#b3bed5" d="M 615.5,679.5 C 611.833,679.5 608.167,679.5 604.5,679.5C 604.806,682.385 604.473,685.052 603.5,687.5C 604.473,685.052 604.806,682.385 604.5,679.5C 608.167,679.5 611.833,679.5 615.5,679.5 Z"/></g>
<g><path style="opacity:1" fill="#939ab4" d="M 437.5,672.5 C 430.167,672.5 422.833,672.5 415.5,672.5C 415.5,677.5 415.5,682.5 415.5,687.5C 401.833,687.5 388.167,687.5 374.5,687.5C 374.5,693.833 374.5,700.167 374.5,706.5C 373.509,700.021 373.176,693.354 373.5,686.5C 387.167,686.5 400.833,686.5 414.5,686.5C 414.5,681.5 414.5,676.5 414.5,671.5C 422.352,671.175 430.018,671.508 437.5,672.5 Z"/></g>
<g><path style="opacity:1" fill="#f5f6f8" d="M 177.5,692.5 C 203.5,692.5 229.5,692.5 255.5,692.5C 255.5,695.5 255.5,698.5 255.5,701.5C 229.5,701.5 203.5,701.5 177.5,701.5C 177.5,698.5 177.5,695.5 177.5,692.5 Z"/></g>
<g><path style="opacity:1" fill="#8f9abb" d="M 764.5,679.5 C 764.5,685.5 764.5,691.5 764.5,697.5C 775.833,697.5 787.167,697.5 798.5,697.5C 798.5,701.833 798.5,706.167 798.5,710.5C 787.5,710.5 776.5,710.5 765.5,710.5C 775.987,709.506 786.654,709.172 797.5,709.5C 797.5,705.833 797.5,702.167 797.5,698.5C 786.167,698.5 774.833,698.5 763.5,698.5C 763.177,691.978 763.51,685.645 764.5,679.5 Z"/></g>
<g><path style="opacity:1" fill="#7282a8" d="M 153.5,651.5 C 195.33,650.501 237.33,650.168 279.5,650.5C 279.5,673.5 279.5,696.5 279.5,719.5C 262.833,719.5 246.167,719.5 229.5,719.5C 229.5,722.167 229.5,724.833 229.5,727.5C 229.167,727.5 228.833,727.5 228.5,727.5C 228.5,724.5 228.5,721.5 228.5,718.5C 245.167,718.5 261.833,718.5 278.5,718.5C 278.5,696.167 278.5,673.833 278.5,651.5C 237.167,651.5 195.833,651.5 154.5,651.5C 154.167,651.5 153.833,651.5 153.5,651.5 Z"/></g>
<g><path style="opacity:1" fill="#102460" d="M 516.5,662.5 C 529.5,662.5 542.5,662.5 555.5,662.5C 555.333,683.836 555.5,705.169 556,726.5C 560.965,733.066 567.465,737.232 575.5,739C 607.498,739.5 639.498,739.667 671.5,739.5C 669.788,746.588 667.788,753.588 665.5,760.5C 633.816,760.854 602.15,760.354 570.5,759C 559.768,757.302 550.768,752.469 543.5,744.5C 536.806,750.527 530.473,756.86 524.5,763.5C 521.353,755.263 518.353,746.93 515.5,738.5C 520.867,733.725 526.367,729.058 532,724.5C 532.5,711.504 532.667,698.504 532.5,685.5C 527.36,684.512 522.026,684.179 516.5,684.5C 516.5,677.167 516.5,669.833 516.5,662.5 Z"/></g>
<g><path style="opacity:1" fill="#0d2257" d="M 204.5,719.5 C 205.477,722.287 205.81,725.287 205.5,728.5C 183.833,728.5 162.167,728.5 140.5,728.5C 140.201,730.604 140.534,732.604 141.5,734.5C 142.192,733.975 142.692,733.308 143,732.5C 159.598,734.312 176.431,735.146 193.5,735C 175.836,735.5 158.17,735.667 140.5,735.5C 140.5,737.167 140.5,738.833 140.5,740.5C 157.503,740.333 174.503,740.5 191.5,741C 175.5,741.333 159.5,741.667 143.5,742C 142.376,742.249 141.376,742.749 140.5,743.5C 161.996,744.167 183.329,744.833 204.5,745.5C 182.833,745.5 161.167,745.5 139.5,745.5C 139.5,739.5 139.5,733.5 139.5,727.5C 161.167,727.5 182.833,727.5 204.5,727.5C 204.5,724.833 204.5,722.167 204.5,719.5 Z"/></g>
<g><path style="opacity:1" fill="#b0b8d0" d="M 744.5,763.5 C 737.352,764.492 730.019,764.825 722.5,764.5C 722.829,749.657 722.496,734.99 721.5,720.5C 721.461,719.244 721.961,718.244 723,717.5C 723.5,732.83 723.667,748.163 723.5,763.5C 730.5,763.5 737.5,763.5 744.5,763.5 Z"/></g>
<g><path style="opacity:1" fill="#0e2252" d="M 228.5,727.5 C 228.833,727.5 229.167,727.5 229.5,727.5C 250.833,727.5 272.167,727.5 293.5,727.5C 293.5,733.5 293.5,739.5 293.5,745.5C 272.167,745.5 250.833,745.5 229.5,745.5C 250.327,744.503 271.327,744.169 292.5,744.5C 292.5,739.167 292.5,733.833 292.5,728.5C 270.993,728.831 249.66,728.497 228.5,727.5 Z"/></g>
<g><path style="opacity:1" fill="#717d9c" d="M 229.5,745.5 C 229.5,751.833 229.5,758.167 229.5,764.5C 220.983,764.826 212.65,764.493 204.5,763.5C 212.5,763.5 220.5,763.5 228.5,763.5C 228.177,757.31 228.51,751.31 229.5,745.5 Z"/></g>
<g><path style="opacity:1" fill="#d5e7f3" d="M 731.5,801.5 C 730.711,801.217 730.044,800.717 729.5,800C 581.834,799.5 434.167,799.333 286.5,799.5C 286.611,798.883 286.944,798.383 287.5,798C 435.5,797.5 583.5,797.333 731.5,797.5C 731.5,798.833 731.5,800.167 731.5,801.5 Z"/></g>
<g><path style="opacity:1" fill="#9cb9dc" d="M 181.5,799.5 C 165.5,799.5 149.5,799.5 133.5,799.5C 133.5,800.5 133.5,801.5 133.5,802.5C 132.566,801.432 132.232,800.099 132.5,798.5C 149.009,798.17 165.342,798.504 181.5,799.5 Z"/></g>
<g><path style="opacity:1" fill="#9eb9dc" d="M 834.5,799.5 C 850.658,798.504 866.991,798.17 883.5,798.5C 883.737,799.791 883.404,800.791 882.5,801.5C 866.868,799.515 850.868,798.849 834.5,799.5 Z"/></g>
<g><path style="opacity:1" fill="#056af0" d="M 181.5,799.5 C 197.877,826.676 221.544,836.176 252.5,828C 267.104,822.215 278.437,812.715 286.5,799.5C 434.167,799.333 581.834,799.5 729.5,800C 730.044,800.717 730.711,801.217 731.5,801.5C 742.44,820.448 758.94,830.448 781,831.5C 804.7,830.409 822.533,819.742 834.5,799.5C 850.868,798.849 866.868,799.515 882.5,801.5C 869.701,841.634 842.701,865.967 801.5,874.5C 790.181,875.222 778.848,875.555 767.5,875.5C 736.426,870.579 711.926,855.245 694,829.5C 656.529,857.647 614.696,876.147 568.5,885C 536.838,890.699 505.171,891.866 473.5,888.5C 468.75,886.969 463.75,886.302 458.5,886.5C 458.167,886.5 457.833,886.5 457.5,886.5C 451.301,883.434 444.634,882.101 437.5,882.5C 394.746,873.451 356.079,855.785 321.5,829.5C 305.084,854.035 282.417,869.035 253.5,874.5C 241.846,875.194 230.18,875.527 218.5,875.5C 175.647,867.974 147.314,843.641 133.5,802.5C 133.5,801.5 133.5,800.5 133.5,799.5C 149.5,799.5 165.5,799.5 181.5,799.5 Z"/></g>
<g><path style="opacity:1" fill="#3774d1" d="M 253.5,874.5 C 247.078,876.058 240.411,876.724 233.5,876.5C 228.322,876.499 223.322,876.166 218.5,875.5C 230.18,875.527 241.846,875.194 253.5,874.5 Z"/></g>
<g><path style="opacity:1" fill="#2f6ecd" d="M 801.5,874.5 C 794.552,875.926 787.386,876.592 780,876.5C 775.653,876.499 771.486,876.166 767.5,875.5C 778.848,875.555 790.181,875.222 801.5,874.5 Z"/></g>
<g><path style="opacity:1" fill="#3876dd" d="M 437.5,882.5 C 444.634,882.101 451.301,883.434 457.5,886.5C 450.547,885.99 443.88,884.656 437.5,882.5 Z"/></g>
<g><path style="opacity:1" fill="#467dd4" d="M 458.5,886.5 C 463.75,886.302 468.75,886.969 473.5,888.5C 468.269,888.556 463.269,887.889 458.5,886.5 Z"/></g>
</svg>
